<?xml version="1.0" standalone="no"?>
<!DOCTYPE svg PUBLIC "-//W3C//DTD SVG 20010904//EN"
 "http://www.w3.org/TR/2001/REC-SVG-20010904/DTD/svg10.dtd">
<svg version="1.0" xmlns="http://www.w3.org/2000/svg"
 width="679.000000pt" height="158.000000pt" viewBox="0 0 679.000000 158.000000"
 preserveAspectRatio="xMidYMid meet">

<g transform="translate(0.000000,158.000000) scale(0.100000,-0.100000)"
fill="#000000" stroke="none">
<path d="M2973 1403 c-9 -3 -13 -28 -13 -73 0 -45 -4 -70 -12 -73 -7 -3 25 -5
72 -5 47 0 79 2 73 5 -9 3 -13 28 -13 73 0 53 -4 69 -16 74 -18 7 -73 7 -91
-1z m81 -9 c12 -5 16 -21 16 -70 0 -60 -11 -83 -24 -49 -6 16 -46 21 -46 6 0
-5 10 -12 23 -14 13 -3 8 -5 -15 -6 l-38 -1 0 64 c0 42 4 66 13 69 18 8 53 8
71 1z"/>
<path d="M890 1385 c-7 -8 -10 -24 -7 -35 3 -10 -1 -24 -9 -31 -8 -6 -14 -16
-14 -21 0 -5 7 -2 16 6 21 22 70 20 83 -1 6 -10 11 -13 11 -7 0 6 -6 17 -14
24 -8 6 -14 17 -12 23 1 7 1 9 -1 5 -8 -14 -44 -8 -50 8 -9 25 14 41 37 26 11
-7 20 -8 20 -3 0 9 -23 21 -40 21 -4 0 -13 -7 -20 -15z"/>
<path d="M1117 1307 c-19 -60 -21 -80 -6 -54 12 21 59 23 59 2 0 -8 4 -15 9
-15 5 0 1 27 -11 60 -11 33 -23 60 -27 60 -4 0 -15 -24 -24 -53z m33 14 c0 -5
3 -16 6 -25 4 -11 0 -16 -14 -16 -15 0 -18 5 -14 25 4 23 22 36 22 16z"/>
<path d="M1213 1300 c0 -36 2 -50 4 -32 2 17 2 47 0 65 -2 17 -4 3 -4 -33z"/>
<path d="M1640 1334 c0 -14 -4 -23 -10 -19 -22 14 -50 -6 -50 -36 0 -31 0 -31
43 -34 27 -2 27 -1 27 56 0 33 -2 59 -5 59 -3 0 -5 -12 -5 -26z m-5 -54 c0
-29 -32 -41 -41 -16 -9 24 4 48 23 44 12 -2 18 -12 18 -28z"/>
<path d="M1871 1298 c1 -35 4 -51 6 -36 3 18 11 28 25 30 51 7 44 68 -8 68
-23 0 -24 -3 -23 -62z m53 36 c8 -21 -1 -34 -25 -34 -14 0 -19 7 -19 25 0 29
34 36 44 9z"/>
<path d="M2282 1300 c1 -48 2 -56 7 -30 8 48 38 54 44 8 l4 -33 -1 35 c-1 28
-5 35 -21 35 -13 0 -22 9 -26 25 -4 14 -7 -2 -7 -40z"/>
<path d="M3182 1353 c13 -3 18 -18 21 -61 l3 -57 2 57 c2 44 6 58 20 61 9 3
-1 5 -23 5 -22 0 -32 -2 -23 -5z"/>
<path d="M3262 1300 c1 -48 2 -56 7 -30 8 48 38 54 44 8 l4 -33 -1 35 c-1 28
-5 35 -21 35 -13 0 -22 9 -26 25 -4 14 -7 -2 -7 -40z"/>
<path d="M1250 1305 c-15 -18 -10 -45 12 -59 12 -7 21 -7 28 0 8 8 4 10 -11
10 -12 -1 -24 5 -26 12 -3 8 6 12 26 12 33 0 39 8 19 28 -16 16 -33 15 -48 -3z
m45 -5 c4 -6 -5 -10 -20 -10 -15 0 -24 4 -20 10 3 6 12 10 20 10 8 0 17 -4 20
-10z"/>
<path d="M1330 1313 c0 -5 5 -14 12 -21 9 -9 9 -15 0 -24 -7 -7 -12 -17 -12
-22 0 -6 5 -3 11 7 10 18 11 18 31 0 21 -18 21 -18 7 5 -11 18 -11 26 -1 42 7
11 8 20 3 20 -5 0 -11 -6 -14 -12 -3 -10 -7 -10 -20 1 -10 7 -17 9 -17 4z"/>
<path d="M1416 1311 c-4 -5 3 -7 14 -4 27 7 25 -10 -2 -22 -28 -12 -30 -39 -3
-43 18 -3 19 -2 2 8 -9 6 -15 15 -12 21 11 17 33 9 40 -13 7 -22 8 -22 12 5 6
41 -33 78 -51 48z"/>
<path d="M1491 1280 l1 -45 8 35 c5 20 5 39 -1 45 -5 5 -9 -8 -8 -35z"/>
<path d="M1533 1309 c10 -6 18 -23 18 -42 2 -31 2 -31 6 -4 5 29 -11 57 -31
57 -6 0 -3 -5 7 -11z"/>
<path d="M1670 1278 c0 -21 5 -38 10 -38 6 0 10 13 10 28 0 15 4 32 10 38 6 6
3 10 -10 10 -16 0 -20 -7 -20 -38z"/>
<path d="M1732 1304 c-5 -9 -7 -25 -5 -35 6 -21 41 -35 54 -22 6 6 1 9 -12 9
-12 -1 -24 5 -26 12 -3 8 6 12 27 12 28 0 30 2 20 20 -13 24 -46 26 -58 4z
m48 -4 c0 -5 -9 -10 -20 -10 -11 0 -20 5 -20 10 0 6 9 10 20 10 11 0 20 -4 20
-10z"/>
<path d="M1973 1313 c-22 -8 -16 -61 7 -68 39 -12 66 35 38 63 -13 13 -24 14
-45 5z m42 -33 c0 -16 -6 -26 -18 -28 -19 -4 -32 20 -23 44 9 25 41 13 41 -16z"/>
<path d="M2051 1295 c-1 -31 14 -55 33 -55 5 0 2 6 -6 13 -9 6 -19 26 -21 42
l-4 30 -2 -30z"/>
<path d="M2107 1288 c-3 -18 -1 -37 4 -42 5 -6 9 7 9 32 0 50 -6 54 -13 10z"/>
<path d="M2141 1275 c1 -27 3 -32 6 -15 3 14 11 32 19 40 11 14 11 16 -6 16
-17 0 -20 -7 -19 -41z"/>
<path d="M2207 1313 c-4 -3 -7 -15 -7 -25 0 -27 40 -20 51 10 7 19 5 22 -15
22 -12 0 -26 -3 -29 -7z m33 -18 c0 -8 -7 -15 -15 -15 -8 0 -15 7 -15 15 0 8
7 15 15 15 8 0 15 -7 15 -15z"/>
<path d="M2376 1311 c-4 -5 2 -7 13 -4 10 3 22 0 25 -6 4 -7 -1 -11 -12 -11
-24 0 -43 -22 -34 -37 4 -7 21 -11 38 -11 27 1 30 4 26 27 -8 43 -40 68 -56
42z m42 -43 c-7 -19 -38 -22 -38 -4 0 10 9 16 21 16 12 0 19 -5 17 -12z"/>
<path d="M2457 1283 c9 -24 20 -43 24 -43 9 0 33 69 26 76 -3 3 -8 -8 -12 -25
-6 -31 -25 -43 -25 -18 0 7 -7 22 -15 33 -12 15 -11 11 2 -23z"/>
<path d="M2540 1309 c-13 -9 -12 -10 3 -5 11 3 24 3 30 -1 7 -4 2 -9 -13 -13
-38 -9 -34 -45 6 -45 29 -1 30 1 24 35 -6 37 -24 48 -50 29z m38 -41 c-7 -19
-38 -22 -38 -4 0 10 9 16 21 16 12 0 19 -5 17 -12z"/>
<path d="M2621 1276 l2 -41 6 35 c4 22 12 35 21 35 9 0 18 -13 22 -35 l6 -35
-1 40 c-2 36 -5 40 -29 41 -26 1 -28 -1 -27 -40z"/>
<path d="M2698 1313 c6 -2 12 -20 12 -39 0 -19 5 -34 10 -34 6 0 10 13 10 28
0 29 -16 53 -34 51 -6 0 -5 -3 2 -6z"/>
<path d="M2753 1280 c0 -25 2 -35 4 -22 2 12 2 32 0 45 -2 12 -4 2 -4 -23z"/>
<path d="M3351 1275 c2 -33 3 -35 6 -10 2 17 11 35 20 42 13 10 13 12 -6 10
-18 -1 -21 -7 -20 -42z"/>
<path d="M3410 1305 c-15 -18 -10 -45 12 -59 12 -7 21 -7 28 0 8 8 4 10 -11
10 -12 -1 -24 5 -26 12 -3 8 6 12 26 12 33 0 39 8 19 28 -16 16 -33 15 -48 -3z
m45 -5 c4 -6 -5 -10 -20 -10 -15 0 -24 4 -20 10 3 6 12 10 20 10 8 0 17 -4 20
-10z"/>
<path d="M3502 1311 c-8 -4 -12 -19 -10 -31 4 -29 33 -49 48 -34 8 8 4 10 -11
10 -12 -1 -24 5 -26 12 -3 8 6 12 26 12 33 0 39 8 19 28 -14 14 -28 15 -46 3z
m43 -11 c4 -6 -5 -10 -20 -10 -15 0 -24 4 -20 10 3 6 12 10 20 10 8 0 17 -4
20 -10z"/>
<path d="M3584 1283 c7 -20 17 -38 22 -40 10 -3 39 65 31 73 -3 3 -10 -10 -17
-28 l-12 -33 -14 33 c-19 44 -26 41 -10 -5z"/>
<path d="M3663 1280 c0 -25 2 -35 4 -22 2 12 2 32 0 45 -2 12 -4 2 -4 -23z"/>
<path d="M3707 1313 c-10 -10 -8 -33 3 -33 5 0 7 7 3 17 -5 13 -2 15 15 11 12
-4 20 -2 16 3 -6 11 -28 12 -37 2z"/>
<path d="M3773 1280 c0 -25 2 -35 4 -22 2 12 2 32 0 45 -2 12 -4 2 -4 -23z"/>
<path d="M3823 1313 c-22 -8 -16 -61 7 -68 39 -12 66 35 38 63 -13 13 -24 14
-45 5z m42 -33 c0 -16 -6 -26 -18 -28 -19 -4 -32 20 -23 44 9 25 41 13 41 -16z"/>
<path d="M3901 1280 l1 -45 8 35 c5 20 5 39 -1 45 -5 5 -9 -8 -8 -35z"/>
<path d="M3943 1309 c10 -6 18 -23 18 -42 2 -31 2 -31 6 -4 5 29 -11 57 -31
57 -6 0 -3 -5 7 -11z"/>
<path d="M280 1281 c0 -24 13 -33 34 -25 21 8 21 30 0 38 -26 10 -34 7 -34
-13z"/>
<path d="M347 1294 c-11 -11 5 -34 23 -34 26 0 45 26 24 34 -20 8 -39 8 -47 0z"/>
<path d="M420 1277 c0 -39 -36 -104 -61 -112 -13 -5 -27 -1 -36 8 -13 13 -12
14 11 10 15 -3 26 -1 26 6 0 6 7 11 16 11 8 0 13 4 9 10 -3 5 -12 7 -20 3 -11
-3 -13 -1 -9 10 4 12 1 14 -15 10 -12 -3 -21 -9 -21 -14 0 -5 -7 -9 -16 -9
-12 0 -14 -7 -9 -28 7 -35 1 -40 -86 -76 l-65 -27 -16 -61 -16 -60 36 -40 c20
-22 59 -52 86 -66 44 -23 63 -27 136 -27 73 0 92 4 136 27 46 24 124 97 124
116 -1 4 -9 32 -19 62 -19 54 -20 55 -93 87 -40 17 -76 32 -79 32 -4 1 -12
-33 -18 -75 -15 -102 -32 -129 -29 -48 0 33 -2 65 -5 71 -4 6 5 20 18 33 17
16 23 30 19 45 -3 12 1 38 9 58 13 30 13 38 1 54 -12 17 -13 16 -14 -10z m-69
-186 c-6 -10 -7 -22 -3 -27 4 -5 3 -38 -3 -74 -6 -36 -14 -60 -17 -55 -9 15
-26 123 -26 167 l0 37 29 -15 c24 -12 28 -18 20 -33z"/>
<path d="M3737 1263 c5 -13 2 -15 -17 -10 -16 4 -20 3 -12 -5 14 -14 42 -3 42
17 0 8 -4 15 -10 15 -5 0 -7 -7 -3 -17z"/>
<path d="M2200 1240 c0 -24 15 -33 41 -25 27 9 20 27 -14 36 -22 6 -27 4 -27
-11z m45 -10 c-3 -5 -13 -10 -21 -10 -8 0 -14 5 -14 10 0 6 9 10 21 10 11 0
17 -4 14 -10z"/>
<path d="M975 1149 c-4 -6 -5 -12 -2 -15 2 -3 7 2 10 11 7 17 1 20 -8 4z"/>
<path d="M1185 1149 c-4 -6 -5 -12 -2 -15 2 -3 7 2 10 11 7 17 1 20 -8 4z"/>
<path d="M1007 1143 c-14 -13 -7 -74 8 -79 21 -8 45 14 45 40 0 34 -34 59 -53
39z m38 -39 c0 -19 -5 -29 -15 -29 -16 0 -25 28 -16 51 10 25 31 10 31 -22z"/>
<path d="M1087 1143 c-13 -12 -7 -44 9 -50 8 -3 13 -12 10 -19 -10 -26 3 -14
19 17 13 24 14 34 4 45 -12 15 -31 18 -42 7z m38 -23 c0 -8 -8 -16 -17 -18
-13 -2 -18 3 -18 18 0 15 5 20 18 18 9 -2 17 -10 17 -18z"/>
<path d="M1223 1143 c-7 -2 -13 -9 -13 -15 0 -6 6 -5 15 2 29 24 38 -4 10 -30
-33 -31 -32 -40 8 -39 l32 1 -28 7 -29 6 26 24 c20 19 23 27 15 38 -12 14 -16
15 -36 6z"/>
<path d="M1291 1128 c-16 -45 13 -84 44 -58 28 24 12 80 -22 80 -8 0 -17 -10
-22 -22z m44 -23 c0 -20 -6 -31 -17 -33 -15 -3 -18 4 -18 33 0 29 3 36 18 33
11 -2 17 -13 17 -33z"/>
<path d="M1383 1143 c-7 -2 -13 -9 -13 -15 0 -6 6 -5 15 2 29 24 38 -4 10 -30
-33 -31 -32 -40 8 -39 l32 1 -28 7 -29 6 26 24 c20 19 23 27 15 38 -12 14 -16
15 -36 6z"/>
<path d="M1456 1141 c-3 -5 3 -7 14 -4 22 6 29 -22 8 -30 -10 -4 -10 -6 0 -6
6 -1 12 -8 12 -17 0 -12 -6 -15 -21 -11 -16 4 -19 3 -11 -5 21 -21 41 -1 39
39 -2 37 -27 58 -41 34z"/>
<path d="M848 1133 c-2 -5 -1 -24 3 -43 l6 -35 2 43 c1 39 -3 52 -11 35z"/>
<path d="M898 1133 c-2 -5 -1 -24 3 -43 l6 -35 2 43 c1 39 -3 52 -11 35z"/>
<path d="M941 1073 c-10 -26 -10 -27 4 -9 8 11 15 23 15 28 0 15 -7 8 -19 -19z"/>
<path d="M1151 1073 c-10 -26 -10 -27 4 -9 8 11 15 23 15 28 0 15 -7 8 -19
-19z"/>
<path d="M892 860 c-3 -59 -15 -79 -36 -61 -11 10 -16 10 -16 2 0 -19 30 -25
46 -9 11 10 14 30 11 64 l-3 49 -2 -45z"/>
<path d="M2400 877 c0 -18 -5 -23 -21 -23 -12 1 -26 -7 -33 -16 -15 -25 4 -53
38 -54 25 -1 26 1 26 57 0 33 -2 59 -5 59 -3 0 -5 -10 -5 -23z m-5 -57 c0 -16
-6 -26 -18 -28 -19 -4 -32 20 -23 44 9 25 41 13 41 -16z"/>
<path d="M2722 840 c1 -48 2 -56 7 -30 4 22 12 35 21 35 9 0 18 -13 22 -35 l6
-35 -1 40 c-2 33 -6 40 -22 40 -13 0 -22 9 -26 25 -4 14 -7 -2 -7 -40z"/>
<path d="M2893 840 c0 -36 2 -50 4 -32 2 17 2 47 0 65 -2 17 -4 3 -4 -33z"/>
<path d="M3910 840 l0 -60 38 2 c36 1 36 1 5 5 -43 6 -47 40 -5 46 l27 4 -27
2 c-23 1 -28 6 -28 25 0 20 6 25 33 29 31 4 31 4 -5 5 l-38 2 0 -60z"/>
<path d="M4493 840 c0 -36 2 -50 4 -32 2 17 2 47 0 65 -2 17 -4 3 -4 -33z"/>
<path d="M1062 863 c-8 -8 -9 -13 -2 -13 5 0 10 -16 10 -35 0 -19 4 -35 8 -35
5 0 6 14 4 31 -3 17 0 34 6 38 6 4 6 10 -2 17 -9 8 -15 7 -24 -3z"/>
<path d="M3812 863 c-8 -8 -9 -13 -2 -13 5 0 10 -16 10 -35 0 -27 4 -35 18
-34 10 0 12 3 5 6 -15 5 -18 60 -4 65 5 2 4 8 -3 14 -8 8 -15 7 -24 -3z"/>
<path d="M5732 863 c-8 -8 -9 -13 -2 -13 5 0 10 -16 10 -35 0 -19 4 -35 8 -35
5 0 6 14 4 31 -3 17 0 34 6 38 6 4 6 10 -2 17 -9 8 -15 7 -24 -3z"/>
<path d="M932 848 c-25 -25 -6 -68 29 -68 10 0 21 5 24 10 4 7 -2 9 -18 5 -17
-5 -26 -2 -30 9 -5 12 0 16 23 16 32 0 42 23 14 34 -22 8 -28 8 -42 -6z m43
-8 c4 -6 -5 -10 -20 -10 -15 0 -24 4 -20 10 3 6 12 10 20 10 8 0 17 -4 20 -10z"/>
<path d="M1123 820 c0 -25 2 -35 4 -22 2 12 2 32 0 45 -2 12 -4 2 -4 -23z"/>
<path d="M1160 845 c-15 -18 -10 -45 12 -59 12 -7 21 -7 28 0 8 8 4 10 -11 10
-12 -1 -24 5 -26 12 -3 8 6 12 26 12 33 0 39 8 19 28 -16 16 -33 15 -48 -3z
m45 -5 c4 -6 -5 -10 -20 -10 -15 0 -24 4 -20 10 3 6 12 10 20 10 8 0 17 -4 20
-10z"/>
<path d="M1241 820 l1 -45 8 35 c5 20 5 39 -1 45 -5 5 -9 -8 -8 -35z"/>
<path d="M1283 849 c10 -6 18 -23 18 -42 2 -31 2 -31 6 -4 5 29 -11 57 -31 57
-6 0 -3 -5 7 -11z"/>
<path d="M1334 848 c-4 -7 2 -18 14 -26 28 -19 28 -36 1 -29 -16 4 -19 3 -11
-5 14 -14 42 -3 42 16 0 8 -9 18 -20 21 -26 8 -26 29 0 22 11 -3 18 -1 14 4
-8 13 -31 11 -40 -3z"/>
<path d="M1456 851 c-4 -5 2 -7 13 -4 10 3 22 0 25 -6 4 -7 -1 -11 -12 -11
-24 0 -43 -22 -34 -37 4 -7 21 -11 38 -11 27 1 30 4 26 27 -8 43 -40 68 -56
42z m42 -43 c-7 -19 -38 -22 -38 -4 0 10 9 16 21 16 12 0 19 -5 17 -12z"/>
<path d="M1581 815 c2 -33 3 -35 6 -10 2 17 11 35 20 42 13 10 13 12 -6 10
-18 -1 -21 -7 -20 -42z"/>
<path d="M1642 851 c-8 -4 -12 -19 -10 -31 4 -29 33 -49 48 -34 8 8 4 10 -11
10 -12 -1 -24 5 -26 12 -3 8 6 12 26 12 33 0 39 8 19 28 -14 14 -28 15 -46 3z
m43 -11 c4 -6 -5 -10 -20 -10 -15 0 -24 4 -20 10 3 6 12 10 20 10 8 0 17 -4
20 -10z"/>
<path d="M1733 853 c-22 -8 -16 -61 8 -68 12 -4 25 -3 30 2 6 6 1 9 -13 9 -18
-1 -23 4 -23 24 0 19 5 25 22 24 12 0 20 3 17 8 -6 9 -22 9 -41 1z"/>
<path d="M1823 853 c-22 -8 -16 -61 7 -68 39 -12 66 35 38 63 -13 13 -24 14
-45 5z m42 -33 c0 -29 -32 -41 -41 -16 -9 24 4 48 23 44 12 -2 18 -12 18 -28z"/>
<path d="M1900 820 c0 -22 5 -40 10 -40 6 0 10 18 10 40 0 22 -4 40 -10 40 -5
0 -10 -18 -10 -40z"/>
<path d="M1938 853 c6 -3 13 -21 13 -41 l2 -37 6 35 c4 22 12 35 21 35 9 0 18
-13 22 -35 l6 -35 -1 40 c-2 40 -2 40 -42 41 -22 1 -34 -1 -27 -3z"/>
<path d="M2041 816 l2 -41 6 35 c4 22 12 35 21 35 9 0 18 -13 22 -35 l6 -35
-1 40 c-2 36 -5 40 -29 41 -26 1 -28 -1 -27 -40z"/>
<path d="M2118 853 c6 -2 12 -20 12 -39 0 -19 5 -34 10 -34 6 0 10 13 10 28 0
29 -16 53 -34 51 -6 0 -5 -3 2 -6z"/>
<path d="M2176 851 c-4 -5 2 -7 13 -4 10 3 22 0 25 -6 4 -7 -1 -11 -12 -11
-24 0 -43 -22 -34 -37 4 -7 21 -11 38 -11 27 1 30 4 26 27 -8 43 -40 68 -56
42z m42 -43 c-7 -19 -38 -22 -38 -4 0 10 9 16 21 16 12 0 19 -5 17 -12z"/>
<path d="M2250 820 c0 -22 5 -40 10 -40 6 0 10 18 10 40 0 22 -4 40 -10 40 -5
0 -10 -18 -10 -40z"/>
<path d="M2292 848 c9 -7 19 -26 21 -43 3 -21 4 -18 3 10 -1 31 -5 41 -21 43
-18 4 -19 3 -3 -10z"/>
<path d="M2442 844 c-5 -9 -7 -25 -5 -35 6 -21 41 -35 54 -22 6 6 1 9 -12 9
-12 -1 -24 5 -26 12 -3 8 6 12 27 12 28 0 30 2 20 20 -13 24 -46 26 -58 4z
m48 -4 c0 -5 -9 -10 -20 -10 -11 0 -20 5 -20 10 0 6 9 10 20 10 11 0 20 -4 20
-10z"/>
<path d="M2531 815 c2 -33 3 -35 6 -10 2 17 11 35 20 42 13 10 13 12 -6 10
-18 -1 -21 -7 -20 -42z"/>
<path d="M2643 853 c-22 -8 -16 -61 8 -68 12 -4 25 -3 30 2 6 6 1 9 -13 9 -18
-1 -23 4 -23 24 0 19 5 25 22 24 12 0 20 3 17 8 -6 9 -22 9 -41 1z"/>
<path d="M2816 851 c-4 -5 3 -7 14 -4 27 7 25 -10 -2 -22 -28 -12 -30 -39 -3
-43 18 -3 19 -2 2 8 -9 6 -15 15 -12 21 11 17 33 9 40 -13 7 -22 8 -22 12 5 6
41 -33 78 -51 48z"/>
<path d="M2932 844 c-5 -9 -7 -25 -5 -35 6 -21 41 -35 54 -22 6 6 1 9 -12 9
-12 -1 -24 5 -26 12 -3 8 6 12 27 12 28 0 30 2 20 20 -13 24 -46 26 -58 4z
m48 -4 c0 -5 -9 -10 -20 -10 -11 0 -20 5 -20 10 0 6 9 10 20 10 11 0 20 -4 20
-10z"/>
<path d="M3023 825 c2 -36 5 -40 30 -41 25 -1 27 1 26 40 l-2 41 -6 -35 c-4
-22 -12 -35 -21 -35 -9 0 -18 13 -22 35 l-6 35 1 -40z"/>
<path d="M3111 815 c2 -33 3 -35 6 -10 2 17 11 35 20 42 13 10 13 12 -6 10
-18 -1 -21 -7 -20 -42z"/>
<path d="M3172 851 c-8 -4 -12 -19 -10 -31 4 -29 33 -49 48 -34 8 8 4 10 -11
10 -12 -1 -24 5 -26 12 -3 8 6 12 26 12 33 0 39 8 19 28 -14 14 -28 15 -46 3z
m43 -11 c4 -6 -5 -10 -20 -10 -15 0 -24 4 -20 10 3 6 12 10 20 10 8 0 17 -4
20 -10z"/>
<path d="M3253 825 c2 -36 5 -40 30 -41 25 -1 27 1 26 40 l-2 41 -6 -35 c-4
-22 -12 -35 -21 -35 -9 0 -18 13 -22 35 l-6 35 1 -40z"/>
<path d="M3347 853 c-10 -10 -8 -33 3 -33 5 0 7 7 3 17 -5 13 -2 15 15 11 12
-4 20 -2 16 3 -6 11 -28 12 -37 2z"/>
<path d="M3422 851 c-8 -4 -12 -19 -10 -31 4 -29 33 -49 48 -34 8 8 4 10 -11
10 -12 -1 -24 5 -26 12 -3 8 6 12 26 12 33 0 39 8 19 28 -14 14 -28 15 -46 3z
m43 -11 c4 -6 -5 -10 -20 -10 -15 0 -24 4 -20 10 3 6 12 10 20 10 8 0 17 -4
20 -10z"/>
<path d="M3501 816 l2 -41 6 35 c4 22 12 35 21 35 9 0 17 -13 21 -35 l6 -35 4
35 c2 23 9 35 19 35 9 0 17 -13 21 -35 6 -34 6 -34 8 -5 1 44 -9 52 -61 52
l-48 -1 1 -40z"/>
<path d="M3640 845 c-15 -18 -10 -45 12 -59 12 -7 21 -7 28 0 8 8 4 10 -11 10
-12 -1 -24 5 -26 12 -3 8 6 12 26 12 33 0 39 8 19 28 -16 16 -33 15 -48 -3z
m45 -5 c4 -6 -5 -10 -20 -10 -15 0 -24 4 -20 10 3 6 12 10 20 10 8 0 17 -4 20
-10z"/>
<path d="M3721 820 l1 -45 8 35 c5 20 5 39 -1 45 -5 5 -9 -8 -8 -35z"/>
<path d="M3763 849 c10 -6 18 -23 18 -42 2 -31 2 -31 6 -4 5 29 -11 57 -31 57
-6 0 -3 -5 7 -11z"/>
<path d="M4000 821 c0 -23 2 -41 4 -41 8 0 12 71 4 76 -4 3 -8 -13 -8 -35z"/>
<path d="M4039 847 c6 -6 12 -25 12 -41 2 -31 2 -31 8 4 4 22 12 35 21 35 9 0
18 -13 22 -35 l6 -35 -1 40 c-2 39 -3 40 -40 41 -27 1 -35 -2 -28 -9z"/>
<path d="M4146 851 c-4 -5 3 -7 14 -4 27 7 25 -10 -2 -22 -28 -12 -30 -39 -3
-43 18 -3 19 -2 2 8 -9 6 -15 15 -12 21 11 17 33 9 40 -13 7 -22 8 -22 12 5 6
41 -33 78 -51 48z"/>
<path d="M4221 816 l2 -41 6 35 c8 48 38 54 44 8 l4 -33 -1 35 c-1 31 -4 35
-28 36 -26 1 -28 -1 -27 -40z"/>
<path d="M4313 825 c2 -36 5 -40 30 -41 25 -1 27 1 26 40 l-2 41 -6 -35 c-4
-22 -12 -35 -21 -35 -9 0 -18 13 -22 35 l-6 35 1 -40z"/>
<path d="M4402 844 c-5 -9 -7 -25 -5 -35 6 -21 41 -35 54 -22 6 6 1 9 -12 9
-12 -1 -24 5 -26 12 -3 8 6 12 27 12 28 0 30 2 20 20 -13 24 -46 26 -58 4z
m48 -4 c0 -5 -9 -10 -20 -10 -11 0 -20 5 -20 10 0 6 9 10 20 10 11 0 20 -4 20
-10z"/>
<path d="M4571 801 c1 -32 4 -48 7 -36 4 11 16 20 26 20 51 0 43 69 -8 71 -25
1 -26 -1 -25 -55z m54 19 c0 -29 -32 -41 -41 -16 -9 24 4 48 23 44 12 -2 18
-12 18 -28z"/>
<path d="M4672 848 c-23 -23 -7 -68 24 -68 14 0 44 27 44 40 0 13 -30 40 -44
40 -6 0 -17 -5 -24 -12z m48 -13 c10 -12 10 -18 0 -30 -25 -30 -61 -7 -46 30
3 8 12 15 19 15 8 0 20 -7 27 -15z"/>
<path d="M4763 825 c2 -36 5 -40 30 -41 25 -1 27 1 26 40 l-2 41 -6 -35 c-4
-22 -12 -35 -21 -35 -9 0 -18 13 -22 35 l-6 35 1 -40z"/>
<path d="M4851 815 c2 -33 3 -35 6 -10 2 17 11 35 20 42 13 10 13 12 -6 10
-18 -1 -21 -7 -20 -42z"/>
<path d="M4957 853 c-10 -10 -8 -33 3 -33 5 0 7 7 3 17 -5 13 -2 15 15 11 12
-4 20 -2 16 3 -6 11 -28 12 -37 2z"/>
<path d="M5032 851 c-8 -4 -12 -19 -10 -31 4 -29 33 -49 48 -34 8 8 4 10 -11
10 -12 -1 -24 5 -26 12 -3 8 6 12 26 12 33 0 39 8 19 28 -14 14 -28 15 -46 3z
m43 -11 c4 -6 -5 -10 -20 -10 -15 0 -24 4 -20 10 3 6 12 10 20 10 8 0 17 -4
20 -10z"/>
<path d="M5114 848 c-4 -7 2 -18 14 -26 28 -19 28 -36 1 -29 -16 4 -19 3 -11
-5 14 -14 42 -3 42 16 0 8 -9 18 -20 21 -26 8 -26 29 0 22 11 -3 18 -1 14 4
-8 13 -31 11 -40 -3z"/>
<path d="M5240 845 c-15 -18 -10 -45 12 -59 12 -7 21 -7 28 0 8 8 4 10 -12 10
-17 -1 -24 5 -26 22 -4 28 22 39 46 21 15 -13 16 -12 3 4 -16 21 -35 22 -51 2z"/>
<path d="M5333 853 c-22 -8 -16 -61 7 -68 39 -12 66 35 38 63 -13 13 -24 14
-45 5z m42 -33 c0 -16 -6 -26 -18 -28 -19 -4 -32 20 -23 44 9 25 41 13 41 -16z"/>
<path d="M5410 820 c0 -22 5 -40 10 -40 6 0 10 18 10 40 0 22 -4 40 -10 40 -5
0 -10 -18 -10 -40z"/>
<path d="M5448 853 c6 -3 13 -21 13 -41 l2 -37 6 35 c4 22 12 35 21 35 9 0 18
-13 22 -35 l6 -35 -1 40 c-2 40 -2 40 -42 41 -22 1 -34 -1 -27 -3z"/>
<path d="M5551 801 c1 -32 4 -48 7 -36 4 11 16 20 26 20 51 0 43 69 -8 71 -25
1 -26 -1 -25 -55z m54 19 c0 -16 -6 -26 -18 -28 -19 -4 -32 20 -23 44 9 25 41
13 41 -16z"/>
<path d="M5652 851 c-8 -4 -12 -19 -10 -31 4 -29 33 -49 48 -34 8 8 4 10 -11
10 -12 -1 -24 5 -26 12 -3 8 6 12 26 12 33 0 39 8 19 28 -14 14 -28 15 -46 3z
m43 -11 c4 -6 -5 -10 -20 -10 -15 0 -24 4 -20 10 3 6 12 10 20 10 8 0 17 -4
20 -10z"/>
<path d="M5790 845 c-15 -18 -10 -45 12 -59 12 -7 21 -7 28 0 8 8 4 10 -11 10
-12 -1 -24 5 -26 12 -3 8 6 12 26 12 33 0 39 8 19 28 -16 16 -33 15 -48 -3z
m45 -5 c4 -6 -5 -10 -20 -10 -15 0 -24 4 -20 10 3 6 12 10 20 10 8 0 17 -4 20
-10z"/>
<path d="M5871 820 l1 -45 8 35 c5 20 5 39 -1 45 -5 5 -9 -8 -8 -35z"/>
<path d="M5913 849 c10 -6 18 -23 18 -42 2 -31 2 -31 6 -4 5 29 -11 57 -31 57
-6 0 -3 -5 7 -11z"/>
<path d="M5970 845 c-15 -18 -10 -45 12 -59 12 -7 21 -7 28 0 8 8 4 10 -12 10
-17 -1 -24 5 -26 22 -4 28 22 39 46 21 15 -13 16 -12 3 4 -16 21 -35 22 -51 2z"/>
<path d="M6062 851 c-8 -4 -12 -19 -10 -31 4 -29 33 -49 48 -34 8 8 4 10 -11
10 -12 -1 -24 5 -26 12 -3 8 6 12 26 12 33 0 39 8 19 28 -14 14 -28 15 -46 3z
m43 -11 c4 -6 -5 -10 -20 -10 -15 0 -24 4 -20 10 3 6 12 10 20 10 8 0 17 -4
20 -10z"/>
<path d="M6147 853 c-10 -10 -8 -33 3 -33 5 0 7 7 3 17 -5 13 -2 15 15 11 12
-4 20 -2 16 3 -6 11 -28 12 -37 2z"/>
<path d="M3377 803 c5 -13 2 -15 -17 -10 -16 4 -20 3 -12 -5 14 -14 42 -3 42
17 0 8 -4 15 -10 15 -5 0 -7 -7 -3 -17z"/>
<path d="M4987 803 c5 -13 2 -15 -17 -10 -16 4 -20 3 -12 -5 14 -14 42 -3 42
17 0 8 -4 15 -10 15 -5 0 -7 -7 -3 -17z"/>
<path d="M6177 803 c5 -13 2 -15 -17 -10 -16 4 -20 3 -12 -5 14 -14 42 -3 42
17 0 8 -4 15 -10 15 -5 0 -7 -7 -3 -17z"/>
<path d="M1733 640 c0 -36 2 -50 4 -32 2 17 2 47 0 65 -2 17 -4 3 -4 -33z"/>
<path d="M1760 640 c0 -33 4 -60 10 -60 6 0 10 27 10 60 0 33 -4 60 -10 60 -6
0 -10 -27 -10 -60z"/>
<path d="M2940 674 c0 -14 -4 -23 -10 -19 -22 14 -50 -6 -50 -36 0 -31 0 -31
43 -34 27 -2 27 -1 27 56 0 33 -2 59 -5 59 -3 0 -5 -12 -5 -26z m-5 -54 c0
-16 -6 -26 -18 -28 -19 -4 -32 20 -23 44 9 25 41 13 41 -16z"/>
<path d="M3233 640 c0 -36 2 -50 4 -32 2 17 2 47 0 65 -2 17 -4 3 -4 -33z"/>
<path d="M3843 683 c-4 -10 -11 -21 -17 -25 -7 -5 -7 -8 2 -8 7 0 13 -15 14
-37 l1 -38 4 35 c3 19 10 38 16 42 9 6 9 8 0 8 -7 0 -13 6 -13 14 0 8 6 17 13
19 9 4 9 6 -1 6 -7 1 -16 -7 -19 -16z"/>
<path d="M4490 676 c0 -19 -4 -22 -24 -19 -30 6 -48 -22 -35 -55 7 -17 15 -22
39 -20 30 2 30 3 30 60 0 32 -2 58 -5 58 -3 0 -5 -11 -5 -24z m-6 -41 c8 -21
-3 -45 -20 -45 -8 0 -17 7 -20 15 -8 21 2 45 20 45 7 0 16 -7 20 -15z"/>
<path d="M4612 638 l1 -63 6 50 6 50 18 -33 c10 -19 21 -32 23 -29 6 5 -43 87
-51 87 -3 0 -4 -28 -3 -62z"/>
<path d="M4678 648 c-3 -29 -1 -57 4 -62 4 -6 8 18 8 52 0 76 -7 81 -12 10z"/>
<path d="M5713 640 c0 -36 2 -50 4 -32 2 17 2 47 0 65 -2 17 -4 3 -4 -33z"/>
<path d="M1272 663 c-7 -7 -8 -13 -3 -13 5 0 11 -14 13 -32 2 -17 9 -33 16
-34 7 -1 8 0 2 3 -12 6 -13 60 -1 65 5 2 4 8 -3 14 -8 8 -15 7 -24 -3z"/>
<path d="M2232 663 c-7 -7 -8 -13 -3 -13 5 0 11 -14 13 -32 2 -17 9 -33 16
-34 7 -1 8 0 2 3 -12 6 -13 60 -1 65 5 2 4 8 -3 14 -8 8 -15 7 -24 -3z"/>
<path d="M2462 663 c-7 -7 -8 -13 -3 -13 5 0 11 -14 13 -32 2 -17 9 -33 16
-34 7 -1 8 0 2 3 -12 6 -13 60 -1 65 5 2 4 8 -3 14 -8 8 -15 7 -24 -3z"/>
<path d="M4122 663 c-7 -7 -8 -13 -3 -13 5 0 11 -14 13 -32 2 -17 9 -33 16
-34 7 -1 8 0 2 3 -12 6 -13 60 -1 65 5 2 4 8 -3 14 -8 8 -15 7 -24 -3z"/>
<path d="M852 651 c-8 -4 -12 -19 -10 -31 4 -29 33 -49 48 -34 8 8 4 10 -11
10 -12 -1 -24 5 -26 12 -3 8 6 12 26 12 33 0 39 8 19 28 -14 14 -28 15 -46 3z
m43 -11 c4 -6 -5 -10 -20 -10 -15 0 -24 4 -20 10 3 6 12 10 20 10 8 0 17 -4
20 -10z"/>
<path d="M937 637 c3 -15 0 -34 -7 -42 -7 -8 -9 -15 -5 -15 4 0 14 8 21 18 12
16 13 16 19 0 4 -10 12 -18 17 -18 6 0 5 6 -2 15 -7 8 -10 27 -7 42 4 16 4 22
1 16 -3 -7 -12 -13 -19 -13 -7 0 -16 6 -19 13 -3 6 -3 0 1 -16z"/>
<path d="M1012 648 c-31 -31 2 -79 41 -60 21 10 20 10 -8 9 -24 -2 -31 2 -33
21 -4 27 22 40 43 22 9 -7 15 -8 15 -2 0 9 -22 22 -39 22 -4 0 -12 -5 -19 -12z"/>
<path d="M1100 645 c-15 -18 -10 -45 12 -59 12 -7 21 -7 28 0 8 8 4 10 -11 10
-12 -1 -24 5 -26 12 -3 8 6 12 26 12 33 0 39 8 19 28 -16 16 -33 15 -48 -3z
m45 -5 c4 -6 -5 -10 -20 -10 -15 0 -24 4 -20 10 3 6 12 10 20 10 8 0 17 -4 20
-10z"/>
<path d="M1181 600 c1 -30 4 -45 6 -32 4 18 9 21 29 16 19 -5 26 -1 33 17 13
35 -3 59 -39 56 -30 -2 -30 -3 -29 -57z m57 26 c6 -29 -15 -43 -35 -24 -14 14
-14 20 -3 33 16 19 34 15 38 -9z"/>
<path d="M1333 620 c0 -25 2 -35 4 -22 2 12 2 32 0 45 -2 12 -4 2 -4 -23z"/>
<path d="M1383 653 c-22 -8 -16 -61 7 -68 39 -12 66 35 38 63 -13 13 -24 14
-45 5z m42 -33 c0 -16 -6 -26 -18 -28 -19 -4 -32 20 -23 44 9 25 41 13 41 -16z"/>
<path d="M1461 620 l1 -45 8 35 c5 20 5 39 -1 45 -5 5 -9 -8 -8 -35z"/>
<path d="M1503 649 c10 -6 18 -23 18 -42 2 -31 2 -31 6 -4 5 29 -11 57 -31 57
-6 0 -3 -5 7 -11z"/>
<path d="M1551 620 l1 -45 8 35 c5 20 5 39 -1 45 -5 5 -9 -8 -8 -35z"/>
<path d="M1593 649 c10 -6 18 -23 18 -42 2 -31 2 -31 6 -4 5 29 -11 57 -31 57
-6 0 -3 -5 7 -11z"/>
<path d="M1652 651 c-8 -4 -12 -19 -10 -31 4 -29 33 -49 48 -34 8 8 4 10 -11
10 -12 -1 -24 5 -26 12 -3 8 6 12 26 12 33 0 39 8 19 28 -14 14 -28 15 -46 3z
m43 -11 c4 -6 -5 -10 -20 -10 -15 0 -24 4 -20 10 3 6 12 10 20 10 8 0 17 -4
20 -10z"/>
<path d="M1810 645 c-15 -18 -10 -45 12 -59 12 -7 21 -7 28 0 8 8 4 10 -11 10
-12 -1 -24 5 -26 12 -3 8 6 12 26 12 33 0 39 8 19 28 -16 16 -33 15 -48 -3z
m45 -5 c4 -6 -5 -10 -20 -10 -15 0 -24 4 -20 10 3 6 12 10 20 10 8 0 17 -4 20
-10z"/>
<path d="M1894 648 c-4 -7 2 -18 14 -26 28 -19 28 -36 1 -29 -16 4 -19 3 -11
-5 14 -14 42 -3 42 16 0 8 -9 18 -20 21 -26 8 -26 29 0 22 11 -3 18 -1 14 4
-8 13 -31 11 -40 -3z"/>
<path d="M2022 651 c-8 -4 -12 -19 -10 -31 4 -29 33 -49 48 -34 8 8 4 10 -11
10 -12 -1 -24 5 -26 12 -3 8 6 12 26 12 33 0 39 8 19 28 -14 14 -28 15 -46 3z
m43 -11 c4 -6 -5 -10 -20 -10 -15 0 -24 4 -20 10 3 6 12 10 20 10 8 0 17 -4
20 -10z"/>
<path d="M2101 616 l2 -41 6 35 c8 48 38 54 44 8 l4 -33 -1 35 c-1 31 -4 35
-28 36 -26 1 -28 -1 -27 -40z"/>
<path d="M2296 651 c-4 -5 2 -7 13 -4 10 3 22 0 25 -6 4 -7 -1 -11 -12 -11
-24 0 -43 -22 -34 -37 4 -7 21 -11 38 -11 27 1 30 4 26 27 -8 43 -40 68 -56
42z m42 -43 c-7 -19 -38 -22 -38 -4 0 10 9 16 21 16 12 0 19 -5 17 -12z"/>
<path d="M2370 620 c0 -22 5 -40 10 -40 6 0 10 18 10 40 0 22 -4 40 -10 40 -5
0 -10 -18 -10 -40z"/>
<path d="M2412 648 c9 -7 19 -26 21 -43 3 -21 4 -18 3 10 -1 31 -5 41 -21 43
-18 4 -19 3 -3 -10z"/>
<path d="M2572 648 c-26 -26 0 -77 32 -65 10 4 16 -2 19 -16 2 -12 5 3 6 33 1
51 -1 56 -22 58 -13 1 -29 -4 -35 -10z m43 -28 c0 -16 -6 -26 -18 -28 -19 -4
-32 20 -23 44 9 25 41 13 41 -16z"/>
<path d="M2663 625 c2 -36 5 -40 30 -41 25 -1 27 1 26 40 l-2 41 -6 -35 c-4
-22 -12 -35 -21 -35 -9 0 -18 13 -22 35 l-6 35 1 -40z"/>
<path d="M2752 644 c-5 -9 -7 -25 -5 -35 6 -21 41 -35 54 -22 6 6 1 9 -12 9
-12 -1 -24 5 -26 12 -3 8 6 12 27 12 28 0 30 2 20 20 -13 24 -46 26 -58 4z
m48 -4 c0 -5 -9 -10 -20 -10 -11 0 -20 5 -20 10 0 6 9 10 20 10 11 0 20 -4 20
-10z"/>
<path d="M2982 648 c-25 -25 -6 -68 29 -68 10 0 21 5 24 10 4 7 -2 9 -18 5
-17 -5 -26 -2 -30 9 -5 12 0 16 23 16 32 0 42 23 14 34 -22 8 -28 8 -42 -6z
m43 -8 c4 -6 -5 -10 -20 -10 -15 0 -24 4 -20 10 3 6 12 10 20 10 8 0 17 -4 20
-10z"/>
<path d="M3061 656 c-2 -20 24 -76 33 -73 9 3 39 77 31 77 -3 0 -11 -15 -19
-32 l-13 -33 -16 35 c-8 19 -16 31 -16 26z"/>
<path d="M3150 645 c-15 -18 -10 -45 12 -59 12 -7 21 -7 28 0 8 8 4 10 -11 10
-12 -1 -24 5 -26 12 -3 8 6 12 26 12 33 0 39 8 19 28 -16 16 -33 15 -48 -3z
m45 -5 c4 -6 -5 -10 -20 -10 -15 0 -24 4 -20 10 3 6 12 10 20 10 8 0 17 -4 20
-10z"/>
<path d="M3283 653 c-22 -8 -16 -61 7 -68 39 -12 66 35 38 63 -13 13 -24 14
-45 5z m42 -33 c0 -16 -6 -26 -18 -28 -19 -4 -32 20 -23 44 9 25 41 13 41 -16z"/>
<path d="M3361 600 c1 -30 4 -45 6 -32 4 18 9 21 29 16 19 -5 26 -1 33 17 13
35 -3 59 -39 56 -30 -2 -30 -3 -29 -57z m57 26 c6 -29 -15 -43 -35 -24 -14 14
-14 20 -3 33 16 19 34 15 38 -9z"/>
<path d="M3461 601 c1 -32 4 -48 7 -36 4 11 16 20 26 20 51 0 43 69 -8 71 -25
1 -26 -1 -25 -55z m54 19 c0 -16 -6 -26 -18 -28 -19 -4 -32 20 -23 44 9 25 41
13 41 -16z"/>
<path d="M3560 645 c-15 -18 -10 -45 12 -59 12 -7 21 -7 28 0 8 8 4 10 -11 10
-12 -1 -24 5 -26 12 -3 8 6 12 26 12 33 0 39 8 19 28 -16 16 -33 15 -48 -3z
m45 -5 c4 -6 -5 -10 -20 -10 -15 0 -24 4 -20 10 3 6 12 10 20 10 8 0 17 -4 20
-10z"/>
<path d="M3641 635 c-1 -31 14 -55 33 -55 5 0 2 6 -6 13 -9 6 -19 26 -21 42
l-4 30 -2 -30z"/>
<path d="M3697 628 c-3 -18 -1 -37 4 -42 5 -6 9 7 9 32 0 50 -6 54 -13 10z"/>
<path d="M3731 615 c1 -27 3 -32 6 -15 3 14 11 32 19 40 11 14 11 16 -6 16
-17 0 -20 -7 -19 -41z"/>
<path d="M3891 615 c2 -33 3 -35 6 -10 2 17 11 35 20 42 13 10 13 12 -6 10
-18 -1 -21 -7 -20 -42z"/>
<path d="M3950 645 c-26 -31 13 -82 44 -56 19 16 21 42 4 59 -16 16 -33 15
-48 -3z m45 -25 c0 -29 -32 -41 -41 -16 -9 24 4 48 23 44 12 -2 18 -12 18 -28z"/>
<path d="M4030 620 c0 -22 5 -40 10 -40 6 0 10 18 10 40 0 22 -4 40 -10 40 -5
0 -10 -18 -10 -40z"/>
<path d="M4072 648 c9 -7 19 -26 21 -43 3 -21 4 -18 3 10 -1 31 -5 41 -21 43
-18 4 -19 3 -3 -10z"/>
<path d="M4262 651 c-8 -4 -12 -19 -10 -31 4 -29 33 -49 48 -34 8 8 4 10 -11
10 -12 -1 -24 5 -26 12 -3 8 6 12 26 12 33 0 39 8 19 28 -14 14 -28 15 -46 3z
m43 -11 c4 -6 -5 -10 -20 -10 -15 0 -24 4 -20 10 3 6 12 10 20 10 8 0 17 -4
20 -10z"/>
<path d="M4341 616 l2 -41 6 35 c8 48 38 54 44 8 l4 -33 -1 35 c-1 31 -4 35
-28 36 -26 1 -28 -1 -27 -40z"/>
<path d="M4732 648 c-23 -23 -7 -68 24 -68 14 0 44 27 44 40 0 13 -30 40 -44
40 -6 0 -17 -5 -24 -12z m48 -13 c10 -12 10 -18 0 -30 -25 -30 -61 -7 -46 30
3 8 12 15 19 15 8 0 20 -7 27 -15z"/>
<path d="M4823 625 c2 -36 5 -40 30 -41 25 -1 27 1 26 40 l-2 41 -6 -35 c-4
-22 -12 -35 -21 -35 -9 0 -18 13 -22 35 l-6 35 1 -40z"/>
<path d="M4917 653 c-10 -10 -8 -33 3 -33 5 0 7 7 3 17 -5 13 -2 15 15 11 12
-4 20 -2 16 3 -6 11 -28 12 -37 2z"/>
<path d="M5036 651 c-3 -5 3 -7 14 -4 11 3 20 1 20 -5 0 -5 -12 -13 -26 -16
-37 -10 -28 -41 12 -41 29 -1 30 1 24 35 -5 34 -31 53 -44 31z m34 -41 c0 -12
-28 -25 -36 -17 -9 9 6 27 22 27 8 0 14 -5 14 -10z"/>
<path d="M5101 657 c-1 -11 27 -77 33 -77 8 0 37 72 32 78 -3 2 -11 -11 -19
-29 l-14 -34 -16 35 c-8 19 -16 31 -16 27z"/>
<path d="M5190 645 c-26 -32 13 -81 48 -59 34 22 22 74 -18 74 -10 0 -23 -7
-30 -15z m50 -11 c11 -12 10 -18 -3 -32 -15 -15 -19 -15 -32 -1 -17 17 -11 49
10 49 7 0 18 -7 25 -16z"/>
<path d="M5281 620 l1 -45 8 35 c5 20 5 39 -1 45 -5 5 -9 -8 -8 -35z"/>
<path d="M5323 649 c10 -6 18 -23 18 -42 2 -31 2 -31 6 -4 5 29 -11 57 -31 57
-6 0 -3 -5 7 -11z"/>
<path d="M5374 648 c-4 -7 2 -18 14 -26 28 -19 28 -36 1 -29 -16 4 -19 3 -11
-5 14 -14 42 -3 42 16 0 8 -9 18 -20 21 -26 8 -26 29 0 22 11 -3 18 -1 14 4
-8 13 -31 11 -40 -3z"/>
<path d="M5502 651 c-8 -4 -12 -19 -10 -31 4 -29 33 -49 48 -34 8 8 4 10 -11
10 -12 -1 -24 5 -26 12 -3 8 6 12 26 12 33 0 39 8 19 28 -14 14 -28 15 -46 3z
m43 -11 c4 -6 -5 -10 -20 -10 -15 0 -24 4 -20 10 3 6 12 10 20 10 8 0 17 -4
20 -10z"/>
<path d="M5583 625 c2 -36 5 -40 30 -41 25 -1 27 1 26 40 l-2 41 -6 -35 c-4
-22 -12 -35 -21 -35 -9 0 -18 13 -22 35 l-6 35 1 -40z"/>
<path d="M5752 644 c-5 -9 -7 -25 -5 -35 6 -21 41 -35 54 -22 6 6 1 9 -12 9
-12 -1 -24 5 -26 12 -3 8 6 12 27 12 28 0 30 2 20 20 -13 24 -46 26 -58 4z
m48 -4 c0 -5 -9 -10 -20 -10 -11 0 -20 5 -20 10 0 6 9 10 20 10 11 0 20 -4 20
-10z"/>
<path d="M4183 623 c9 -2 25 -2 35 0 9 3 1 5 -18 5 -19 0 -27 -2 -17 -5z"/>
<path d="M4947 603 c5 -13 2 -15 -17 -10 -16 4 -20 3 -12 -5 14 -14 42 -3 42
17 0 8 -4 15 -10 15 -5 0 -7 -7 -3 -17z"/>
<path d="M1153 440 c0 -36 2 -50 4 -32 2 17 2 47 0 65 -2 17 -4 3 -4 -33z"/>
<path d="M1540 477 c0 -18 -5 -23 -21 -23 -12 1 -26 -7 -33 -16 -17 -27 4 -53
43 -53 l31 -1 0 58 c0 32 -4 58 -10 58 -5 0 -10 -10 -10 -23z m-5 -57 c0 -15
-6 -26 -16 -28 -19 -3 -31 21 -22 43 9 25 38 13 38 -15z"/>
<path d="M2113 440 c0 -36 2 -50 4 -32 2 17 2 47 0 65 -2 17 -4 3 -4 -33z"/>
<path d="M2140 440 c0 -33 4 -60 10 -60 6 0 10 27 10 60 0 33 -4 60 -10 60 -6
0 -10 -27 -10 -60z"/>
<path d="M2750 440 c0 -33 4 -60 10 -60 6 0 10 27 10 60 0 33 -4 60 -10 60 -6
0 -10 -27 -10 -60z"/>
<path d="M3223 440 c0 -36 2 -50 4 -32 2 17 2 47 0 65 -2 17 -4 3 -4 -33z"/>
<path d="M3540 481 c0 -11 -6 -22 -12 -24 -10 -4 -10 -6 0 -6 7 -1 13 -17 14
-38 l1 -38 4 35 c3 19 10 38 16 42 9 6 9 8 0 8 -7 0 -13 6 -13 14 0 8 6 17 13
19 7 3 5 6 -5 6 -11 1 -18 -6 -18 -18z"/>
<path d="M4010 474 c0 -14 -4 -23 -10 -19 -22 14 -50 -6 -50 -36 0 -31 0 -31
43 -34 27 -2 27 -1 27 56 0 33 -2 59 -5 59 -3 0 -5 -12 -5 -26z m-5 -54 c0
-16 -6 -26 -18 -28 -19 -4 -32 20 -23 44 9 25 41 13 41 -16z"/>
<path d="M5733 440 c0 -36 2 -50 4 -32 2 17 2 47 0 65 -2 17 -4 3 -4 -33z"/>
<path d="M1718 467 c-8 -23 7 -80 22 -85 12 -4 13 -2 3 9 -15 15 -17 56 -4 61
5 2 3 8 -4 15 -10 9 -14 9 -17 0z"/>
<path d="M3762 463 c-7 -7 -8 -13 -3 -13 5 0 11 -14 13 -32 2 -17 9 -33 16
-34 7 -1 8 0 2 3 -12 6 -13 60 -1 65 5 2 4 8 -3 14 -8 8 -15 7 -24 -3z"/>
<path d="M4362 463 c-7 -7 -8 -13 -3 -13 5 0 11 -14 13 -32 2 -17 9 -33 16
-34 7 -1 8 0 2 3 -12 6 -13 60 -1 65 5 2 4 8 -3 14 -8 8 -15 7 -24 -3z"/>
<path d="M4722 463 c-8 -8 -9 -13 -2 -13 5 0 10 -16 10 -35 0 -19 4 -35 8 -35
5 0 6 14 4 31 -3 17 0 34 6 38 6 4 6 10 -2 17 -9 8 -15 7 -24 -3z"/>
<path d="M5032 463 c-8 -8 -9 -13 -2 -13 5 0 10 -16 10 -35 0 -19 4 -35 8 -35
5 0 6 14 4 31 -3 17 0 34 6 38 6 4 6 10 -2 17 -9 8 -15 7 -24 -3z"/>
<path d="M5402 463 c-7 -7 -8 -13 -3 -13 5 0 11 -14 13 -32 2 -17 9 -33 16
-34 7 -1 8 0 2 3 -12 6 -13 60 -1 65 5 2 4 8 -3 14 -8 8 -15 7 -24 -3z"/>
<path d="M5632 463 c-7 -7 -8 -13 -3 -13 5 0 11 -14 13 -32 2 -17 9 -33 16
-34 7 -1 8 0 2 3 -12 6 -13 60 -1 65 5 2 4 8 -3 14 -8 8 -15 7 -24 -3z"/>
<path d="M841 401 c1 -32 4 -48 7 -36 4 11 16 20 26 20 51 0 43 69 -8 71 -25
1 -26 -1 -25 -55z m54 19 c0 -29 -32 -41 -41 -16 -9 24 4 48 23 44 12 -2 18
-12 18 -28z"/>
<path d="M930 418 c0 -21 5 -38 10 -38 6 0 10 13 10 28 0 15 4 32 10 38 6 6 3
10 -10 10 -16 0 -20 -7 -20 -38z"/>
<path d="M993 420 c0 -25 2 -35 4 -22 2 12 2 32 0 45 -2 12 -4 2 -4 -23z"/>
<path d="M1034 423 c7 -20 17 -38 22 -40 10 -3 39 65 31 73 -3 3 -10 -10 -17
-28 l-12 -33 -14 33 c-19 44 -26 41 -10 -5z"/>
<path d="M1113 420 c0 -25 2 -35 4 -22 2 12 2 32 0 45 -2 12 -4 2 -4 -23z"/>
<path d="M1190 445 c-15 -18 -10 -45 12 -59 12 -7 21 -7 28 0 8 8 4 10 -11 10
-12 -1 -24 5 -26 12 -3 8 6 12 26 12 33 0 39 8 19 28 -16 16 -33 15 -48 -3z
m45 -5 c4 -6 -5 -10 -20 -10 -15 0 -24 4 -20 10 3 6 12 10 20 10 8 0 17 -4 20
-10z"/>
<path d="M1284 452 c-7 -4 -11 -27 -10 -52 1 -41 3 -45 26 -45 16 0 26 6 28
18 3 13 -3 17 -22 17 -32 0 -35 17 -3 22 28 4 38 48 10 48 -10 0 -23 -4 -29
-8z m31 -11 c7 -12 -12 -24 -25 -16 -11 7 -4 25 10 25 5 0 11 -4 15 -9z m5
-71 c0 -5 -9 -10 -20 -10 -11 0 -20 5 -20 10 0 6 9 10 20 10 11 0 20 -4 20
-10z"/>
<path d="M1360 445 c-15 -18 -10 -45 12 -59 12 -7 21 -7 28 0 8 8 4 10 -11 10
-12 -1 -24 5 -26 12 -3 8 6 12 26 12 33 0 39 8 19 28 -16 16 -33 15 -48 -3z
m45 -5 c4 -6 -5 -10 -20 -10 -15 0 -24 4 -20 10 3 6 12 10 20 10 8 0 17 -4 20
-10z"/>
<path d="M1592 451 c-8 -4 -12 -19 -10 -31 4 -29 33 -49 48 -34 8 8 4 10 -11
10 -12 -1 -24 5 -26 12 -3 8 6 12 26 12 33 0 39 8 19 28 -14 14 -28 15 -46 3z
m43 -11 c4 -6 -5 -10 -20 -10 -15 0 -24 4 -20 10 3 6 12 10 20 10 8 0 17 -4
20 -10z"/>
<path d="M1771 415 c1 -27 3 -32 6 -15 3 14 11 32 19 40 11 14 11 16 -6 16
-17 0 -20 -7 -19 -41z"/>
<path d="M1836 451 c-4 -5 3 -7 14 -4 27 7 25 -10 -2 -22 -28 -12 -30 -39 -3
-43 18 -3 19 -2 2 8 -9 6 -15 15 -12 21 11 17 33 9 40 -13 7 -22 8 -22 12 5 6
41 -33 78 -51 48z"/>
<path d="M1914 423 c7 -20 17 -38 22 -40 10 -3 39 65 31 73 -3 3 -10 -10 -17
-28 l-12 -33 -14 33 c-19 44 -26 41 -10 -5z"/>
<path d="M1996 451 c-4 -5 2 -7 13 -4 10 3 22 0 25 -6 4 -7 -1 -11 -12 -11
-24 0 -43 -22 -34 -37 4 -7 21 -11 38 -11 27 1 30 4 26 27 -8 43 -40 68 -56
42z m42 -43 c-7 -19 -38 -22 -38 -4 0 10 9 16 21 16 12 0 19 -5 17 -12z"/>
<path d="M2070 420 c0 -22 5 -40 10 -40 6 0 10 18 10 40 0 22 -4 40 -10 40 -5
0 -10 -18 -10 -40z"/>
<path d="M2192 451 c-8 -4 -12 -19 -10 -31 4 -29 33 -49 48 -34 8 8 4 10 -11
10 -12 -1 -24 5 -26 12 -3 8 6 12 26 12 33 0 39 8 19 28 -14 14 -28 15 -46 3z
m43 -11 c4 -6 -5 -10 -20 -10 -15 0 -24 4 -20 10 3 6 12 10 20 10 8 0 17 -4
20 -10z"/>
<path d="M2271 415 c2 -33 3 -35 6 -10 2 17 11 35 20 42 13 10 13 12 -6 10
-18 -1 -21 -7 -20 -42z"/>
<path d="M2376 451 c-4 -5 2 -7 13 -4 10 3 22 0 25 -6 4 -7 -1 -11 -12 -11
-24 0 -43 -22 -34 -37 4 -7 21 -11 38 -11 27 1 30 4 26 27 -8 43 -40 68 -56
42z m42 -43 c-7 -19 -38 -22 -38 -4 0 10 9 16 21 16 12 0 19 -5 17 -12z"/>
<path d="M2457 423 c9 -24 20 -43 24 -43 9 0 33 69 26 76 -3 3 -8 -8 -12 -25
-6 -31 -25 -43 -25 -18 0 7 -7 22 -15 33 -12 15 -11 11 2 -23z"/>
<path d="M2542 451 c-8 -4 -12 -19 -10 -31 4 -29 33 -49 48 -34 8 8 4 10 -11
10 -12 -1 -24 5 -26 12 -3 8 6 12 26 12 33 0 39 8 19 28 -14 14 -28 15 -46 3z
m43 -11 c4 -6 -5 -10 -20 -10 -15 0 -24 4 -20 10 3 6 12 10 20 10 8 0 17 -4
20 -10z"/>
<path d="M2630 445 c-15 -18 -10 -45 12 -59 12 -7 21 -7 28 0 8 8 4 10 -12 10
-17 -1 -24 5 -26 22 -4 28 22 39 46 21 15 -13 16 -12 3 4 -16 21 -35 22 -51 2z"/>
<path d="M2793 425 c2 -36 5 -40 30 -41 25 -1 27 1 26 40 l-2 41 -6 -35 c-4
-22 -12 -35 -21 -35 -9 0 -18 13 -22 35 l-6 35 1 -40z"/>
<path d="M2883 420 c0 -25 2 -35 4 -22 2 12 2 32 0 45 -2 12 -4 2 -4 -23z"/>
<path d="M2967 453 c-10 -10 -8 -33 3 -33 5 0 7 7 3 17 -5 13 -2 15 15 11 12
-4 20 -2 16 3 -6 11 -28 12 -37 2z"/>
<path d="M3031 435 c-1 -31 14 -55 33 -55 5 0 2 6 -6 13 -9 6 -19 26 -21 42
l-4 30 -2 -30z"/>
<path d="M3087 428 c-3 -18 -1 -37 4 -42 5 -6 9 7 9 32 0 50 -6 54 -13 10z"/>
<path d="M3121 415 c1 -27 3 -32 6 -15 3 14 11 32 19 40 11 14 11 16 -6 16
-17 0 -20 -7 -19 -41z"/>
<path d="M3266 451 c-4 -5 2 -7 13 -4 10 3 22 0 25 -6 4 -7 -1 -11 -12 -11
-24 0 -43 -22 -34 -37 4 -7 21 -11 38 -11 27 1 30 4 26 27 -8 43 -40 68 -56
42z m42 -43 c-7 -19 -38 -22 -38 -4 0 10 9 16 21 16 12 0 19 -5 17 -12z"/>
<path d="M3391 415 c2 -33 3 -35 6 -10 2 17 11 35 20 42 13 10 13 12 -6 10
-18 -1 -21 -7 -20 -42z"/>
<path d="M3452 451 c-8 -4 -12 -19 -10 -31 4 -29 33 -49 48 -34 8 8 4 10 -11
10 -12 -1 -24 5 -26 12 -3 8 6 12 26 12 33 0 39 8 19 28 -14 14 -28 15 -46 3z
m43 -11 c4 -6 -5 -10 -20 -10 -15 0 -24 4 -20 10 3 6 12 10 20 10 8 0 17 -4
20 -10z"/>
<path d="M3590 445 c-26 -31 13 -82 44 -56 19 16 21 42 4 59 -16 16 -33 15
-48 -3z m45 -25 c0 -16 -6 -26 -18 -28 -19 -4 -32 20 -23 44 9 25 41 13 41
-16z"/>
<path d="M3670 420 c0 -22 5 -40 10 -40 6 0 10 18 10 40 0 22 -4 40 -10 40 -5
0 -10 -18 -10 -40z"/>
<path d="M3712 448 c9 -7 19 -26 21 -43 3 -21 4 -18 3 10 -1 31 -5 41 -21 43
-18 4 -19 3 -3 -10z"/>
<path d="M3822 444 c-5 -9 -7 -25 -5 -35 6 -21 41 -35 54 -22 6 6 1 9 -12 9
-12 -1 -24 5 -26 12 -3 8 6 12 27 12 28 0 30 2 20 20 -13 24 -46 26 -58 4z
m48 -4 c0 -5 -9 -10 -20 -10 -11 0 -20 5 -20 10 0 6 9 10 20 10 11 0 20 -4 20
-10z"/>
<path d="M4052 448 c-25 -25 -6 -68 29 -68 10 0 21 5 24 10 4 7 -2 9 -18 5
-17 -5 -26 -2 -30 9 -5 12 0 16 23 16 32 0 42 23 14 34 -22 8 -28 8 -42 -6z
m43 -8 c4 -6 -5 -10 -20 -10 -15 0 -24 4 -20 10 3 6 12 10 20 10 8 0 17 -4 20
-10z"/>
<path d="M4181 416 l2 -41 6 35 c8 48 38 54 44 8 l4 -33 -1 35 c-1 31 -4 35
-28 36 -26 1 -28 -1 -27 -40z"/>
<path d="M4283 453 c-22 -8 -16 -61 7 -68 39 -12 66 35 38 63 -13 13 -24 14
-45 5z m42 -33 c0 -16 -6 -26 -18 -28 -19 -4 -32 20 -23 44 9 25 41 13 41 -16z"/>
<path d="M4421 415 c2 -33 3 -35 6 -10 2 17 11 35 20 42 13 10 13 12 -6 10
-18 -1 -21 -7 -20 -42z"/>
<path d="M4480 445 c-15 -18 -10 -45 12 -59 12 -7 21 -7 28 0 8 8 4 10 -11 10
-12 -1 -24 5 -26 12 -3 8 6 12 26 12 33 0 39 8 19 28 -16 16 -33 15 -48 -3z
m45 -5 c4 -6 -5 -10 -20 -10 -15 0 -24 4 -20 10 3 6 12 10 20 10 8 0 17 -4 20
-10z"/>
<path d="M4617 453 c-10 -10 -8 -33 3 -33 5 0 6 8 3 17 -5 12 -2 15 10 10 9
-3 17 -2 17 3 0 11 -23 13 -33 3z"/>
<path d="M4683 420 c0 -25 2 -35 4 -22 2 12 2 32 0 45 -2 12 -4 2 -4 -23z"/>
<path d="M4782 451 c-8 -4 -12 -19 -10 -31 4 -29 33 -49 48 -34 8 8 4 10 -11
10 -12 -1 -24 5 -26 12 -3 8 6 12 26 12 33 0 39 8 19 28 -14 14 -28 15 -46 3z
m43 -11 c4 -6 -5 -10 -20 -10 -15 0 -24 4 -20 10 3 6 12 10 20 10 8 0 17 -4
20 -10z"/>
<path d="M4900 420 c0 -22 5 -40 10 -40 6 0 10 18 10 40 0 22 -4 40 -10 40 -5
0 -10 -18 -10 -40z"/>
<path d="M4941 416 l2 -41 6 35 c8 48 38 54 44 8 l4 -33 -1 35 c-1 31 -4 35
-28 36 -26 1 -28 -1 -27 -40z"/>
<path d="M5092 451 c-8 -4 -12 -19 -10 -31 4 -29 33 -49 48 -34 8 8 4 10 -11
10 -12 -1 -24 5 -26 12 -3 8 6 12 26 12 33 0 39 8 19 28 -14 14 -28 15 -46 3z
m43 -11 c4 -6 -5 -10 -20 -10 -15 0 -24 4 -20 10 3 6 12 10 20 10 8 0 17 -4
20 -10z"/>
<path d="M5171 415 c2 -33 3 -35 6 -10 2 17 11 35 20 42 13 10 13 12 -6 10
-18 -1 -21 -7 -20 -42z"/>
<path d="M5231 416 l2 -41 6 35 c4 22 12 35 21 35 9 0 18 -13 22 -35 l6 -35
-1 40 c-2 36 -5 40 -29 41 -26 1 -28 -1 -27 -40z"/>
<path d="M5322 448 c-25 -25 -6 -68 29 -68 10 0 21 5 24 10 4 7 -2 9 -18 5
-17 -5 -26 -2 -30 9 -5 12 0 16 23 16 32 0 42 23 14 34 -22 8 -28 8 -42 -6z
m43 -8 c4 -6 -5 -10 -20 -10 -15 0 -24 4 -20 10 3 6 12 10 20 10 8 0 17 -4 20
-10z"/>
<path d="M5552 448 c-25 -25 -6 -68 29 -68 10 0 21 5 24 10 4 7 -2 9 -18 5
-17 -5 -26 -2 -30 9 -5 12 0 16 23 16 32 0 42 23 14 34 -22 8 -28 8 -42 -6z
m43 -8 c4 -6 -5 -10 -20 -10 -15 0 -24 4 -20 10 3 6 12 10 20 10 8 0 17 -4 20
-10z"/>
<path d="M5772 444 c-5 -9 -7 -25 -5 -35 6 -21 41 -35 54 -22 6 6 1 9 -12 9
-12 -1 -24 5 -26 12 -3 8 6 12 27 12 28 0 30 2 20 20 -13 24 -46 26 -58 4z
m48 -4 c0 -5 -9 -10 -20 -10 -11 0 -20 5 -20 10 0 6 9 10 20 10 11 0 20 -4 20
-10z"/>
<path d="M5867 453 c-10 -10 -8 -33 3 -33 5 0 7 7 3 17 -5 13 -2 15 15 11 12
-4 20 -2 16 3 -6 11 -28 12 -37 2z"/>
<path d="M2997 403 c5 -13 2 -15 -17 -10 -16 4 -20 3 -12 -5 14 -14 42 -3 42
17 0 8 -4 15 -10 15 -5 0 -7 -7 -3 -17z"/>
<path d="M4642 410 c2 -9 -4 -14 -14 -14 -10 1 -15 -2 -12 -7 7 -12 31 -11 40
2 3 6 1 16 -6 22 -9 9 -11 8 -8 -3z"/>
<path d="M5897 403 c5 -13 2 -15 -17 -10 -16 4 -20 3 -12 -5 14 -14 42 -3 42
17 0 8 -4 15 -10 15 -5 0 -7 -7 -3 -17z"/>
<path d="M5465 380 c3 -5 8 -10 11 -10 2 0 4 5 4 10 0 6 -5 10 -11 10 -5 0 -7
-4 -4 -10z"/>
<path d="M1140 240 c0 -33 4 -60 10 -60 6 0 10 27 10 60 0 33 -4 60 -10 60 -6
0 -10 -27 -10 -60z"/>
<path d="M1840 274 c0 -14 -4 -23 -10 -19 -22 14 -50 -6 -50 -36 0 -31 0 -31
43 -34 27 -2 27 -1 27 56 0 33 -2 59 -5 59 -3 0 -5 -12 -5 -26z m-5 -54 c0
-16 -6 -26 -18 -28 -19 -4 -32 20 -23 44 9 25 41 13 41 -16z"/>
<path d="M1182 263 c-8 -8 -9 -13 -2 -13 5 0 10 -16 10 -35 0 -27 4 -35 18
-34 10 0 12 3 5 6 -15 5 -18 60 -4 65 5 2 4 8 -3 14 -8 8 -15 7 -24 -3z"/>
<path d="M1322 263 c-8 -8 -9 -13 -2 -13 5 0 10 -16 10 -35 0 -27 4 -35 18
-34 10 0 12 3 5 6 -15 5 -18 60 -4 65 5 2 4 8 -3 14 -8 8 -15 7 -24 -3z"/>
<path d="M1682 263 c-8 -8 -9 -13 -2 -13 5 0 10 -16 10 -35 0 -19 4 -35 8 -35
5 0 6 14 4 31 -3 17 0 34 6 38 6 4 6 10 -2 17 -9 8 -15 7 -24 -3z"/>
<path d="M2428 267 c-8 -23 7 -80 22 -85 12 -4 13 -2 3 9 -15 15 -17 56 -4 61
5 2 3 8 -4 15 -10 9 -14 9 -17 0z"/>
<path d="M2662 263 c-7 -7 -8 -13 -3 -13 5 0 11 -14 13 -32 2 -17 9 -33 16
-34 7 -1 8 0 2 3 -12 6 -13 60 -1 65 5 2 4 8 -3 14 -8 8 -15 7 -24 -3z"/>
<path d="M3312 263 c-8 -8 -9 -13 -2 -13 5 0 10 -16 10 -35 0 -19 4 -35 8 -35
5 0 6 14 4 31 -3 17 0 34 6 38 6 4 6 10 -2 17 -9 8 -15 7 -24 -3z"/>
<path d="M3372 263 c-8 -8 -9 -13 -2 -13 5 0 10 -16 10 -35 0 -19 4 -35 8 -35
5 0 6 14 4 31 -3 17 0 34 6 38 6 4 6 10 -2 17 -9 8 -15 7 -24 -3z"/>
<path d="M3602 263 c-8 -8 -9 -13 -2 -13 5 0 10 -16 10 -35 0 -27 4 -35 18
-34 10 0 12 3 5 6 -15 5 -18 60 -4 65 5 2 4 8 -3 14 -8 8 -15 7 -24 -3z"/>
<path d="M841 215 c2 -33 3 -35 6 -10 2 17 11 35 20 42 13 10 13 12 -6 10 -18
-1 -21 -7 -20 -42z"/>
<path d="M900 245 c-15 -18 -10 -45 12 -59 12 -7 21 -7 28 0 8 8 4 10 -11 10
-12 -1 -24 5 -26 12 -3 8 6 12 26 12 33 0 39 8 19 28 -16 16 -33 15 -48 -3z
m45 -5 c4 -6 -5 -10 -20 -10 -15 0 -24 4 -20 10 3 6 12 10 20 10 8 0 17 -4 20
-10z"/>
<path d="M987 253 c-13 -12 -7 -23 18 -35 29 -13 23 -32 -8 -22 -17 5 -19 3
-11 -6 14 -14 46 -10 51 7 3 7 -7 18 -21 24 -26 12 -26 35 1 25 8 -3 11 -1 8
4 -7 11 -28 13 -38 3z"/>
<path d="M1050 239 c0 -35 19 -59 45 -57 22 2 25 7 24 43 l-2 40 -6 -35 c-9
-50 -41 -55 -41 -6 0 20 -4 36 -10 36 -5 0 -10 -9 -10 -21z"/>
<path d="M1246 251 c-4 -5 2 -7 13 -4 10 3 22 0 25 -6 4 -7 -1 -11 -12 -11
-24 0 -43 -22 -34 -37 4 -7 21 -11 38 -11 27 1 30 4 26 27 -8 43 -40 68 -56
42z m42 -43 c-7 -19 -38 -22 -38 -4 0 10 9 16 21 16 12 0 19 -5 17 -12z"/>
<path d="M1387 253 c-10 -10 -8 -33 3 -33 5 0 6 8 3 17 -5 12 -2 15 10 10 9
-3 17 -2 17 3 0 11 -23 13 -33 3z"/>
<path d="M1500 245 c-15 -18 -10 -45 13 -59 34 -22 73 27 47 59 -16 19 -44 19
-60 0z m50 -11 c11 -12 10 -18 -3 -32 -15 -15 -19 -15 -32 -1 -17 17 -11 49
10 49 7 0 18 -7 25 -16z"/>
<path d="M1591 220 l1 -45 8 35 c5 20 5 39 -1 45 -5 5 -9 -8 -8 -35z"/>
<path d="M1633 249 c10 -6 18 -23 18 -42 2 -31 2 -31 6 -4 5 29 -11 57 -31 57
-6 0 -3 -5 7 -11z"/>
<path d="M1882 248 c-25 -25 -6 -68 29 -68 10 0 21 5 24 10 4 7 -2 9 -18 5
-17 -5 -26 -2 -30 9 -5 12 0 16 23 16 32 0 42 23 14 34 -22 8 -28 8 -42 -6z
m43 -8 c4 -6 -5 -10 -20 -10 -15 0 -24 4 -20 10 3 6 12 10 20 10 8 0 17 -4 20
-10z"/>
<path d="M1960 203 c0 -29 5 -53 10 -53 6 0 10 9 10 19 0 14 5 18 19 14 26 -7
46 29 31 57 -7 13 -19 19 -40 17 -29 -2 -30 -3 -30 -54z m60 31 c11 -12 11
-18 -2 -31 -19 -18 -38 -10 -38 16 0 33 20 40 40 15z"/>
<path d="M2066 251 c-4 -5 2 -7 13 -4 10 3 22 0 25 -6 4 -7 -1 -11 -12 -11
-24 0 -43 -22 -34 -37 4 -7 21 -11 38 -11 27 1 30 4 26 27 -8 43 -40 68 -56
42z m42 -43 c-7 -19 -38 -22 -38 -4 0 10 9 16 21 16 12 0 19 -5 17 -12z"/>
<path d="M2147 253 c-13 -12 -7 -23 18 -35 29 -13 23 -32 -8 -22 -17 5 -19 3
-11 -6 14 -14 46 -10 51 7 3 7 -7 18 -21 24 -26 12 -26 35 1 25 8 -3 11 -1 8
4 -7 11 -28 13 -38 3z"/>
<path d="M2227 253 c-10 -10 -8 -33 3 -33 5 0 7 7 3 17 -5 13 -2 15 15 11 12
-4 20 -2 16 3 -6 11 -28 12 -37 2z"/>
<path d="M2302 251 c-8 -4 -12 -19 -10 -31 4 -29 33 -49 48 -34 8 8 4 10 -11
10 -12 -1 -24 5 -26 12 -3 8 6 12 26 12 33 0 39 8 19 28 -14 14 -28 15 -46 3z
m43 -11 c4 -6 -5 -10 -20 -10 -15 0 -24 4 -20 10 3 6 12 10 20 10 8 0 17 -4
20 -10z"/>
<path d="M2493 253 c-22 -8 -16 -61 7 -68 39 -12 66 35 38 63 -13 13 -24 14
-45 5z m42 -33 c0 -16 -6 -26 -18 -28 -19 -4 -32 20 -23 44 9 25 41 13 41 -16z"/>
<path d="M2571 235 c-1 -31 14 -55 33 -55 5 0 2 6 -6 13 -9 6 -19 26 -21 42
l-4 30 -2 -30z"/>
<path d="M2627 228 c-3 -18 -1 -37 4 -43 5 -5 9 8 9 33 0 50 -6 54 -13 10z"/>
<path d="M2722 244 c-5 -9 -7 -25 -5 -35 6 -21 41 -35 54 -22 6 6 1 9 -12 9
-12 -1 -24 5 -26 12 -3 8 6 12 27 12 28 0 30 2 20 20 -13 24 -46 26 -58 4z
m48 -4 c0 -5 -9 -10 -20 -10 -11 0 -20 5 -20 10 0 6 9 10 20 10 11 0 20 -4 20
-10z"/>
<path d="M2817 253 c-10 -10 -8 -33 3 -33 5 0 6 8 3 17 -5 12 -2 15 10 10 9
-3 17 -2 17 3 0 11 -23 13 -33 3z"/>
<path d="M2920 220 c0 -22 5 -40 10 -40 6 0 10 18 10 40 0 22 -4 40 -10 40 -5
0 -10 -18 -10 -40z"/>
<path d="M2962 248 c9 -7 19 -26 21 -43 3 -21 4 -18 3 10 -1 31 -5 41 -21 43
-18 4 -19 3 -3 -10z"/>
<path d="M3022 248 c-23 -23 -7 -68 24 -68 14 0 44 27 44 40 0 13 -30 40 -44
40 -6 0 -17 -5 -24 -12z m48 -13 c10 -12 10 -18 0 -30 -25 -30 -61 -7 -46 30
3 8 12 15 19 15 8 0 20 -7 27 -15z"/>
<path d="M3117 253 c-10 -10 -8 -33 3 -33 5 0 7 7 3 17 -5 13 -2 15 15 11 12
-4 20 -2 16 3 -6 11 -28 12 -37 2z"/>
<path d="M3236 251 c-4 -5 3 -7 14 -4 27 7 25 -10 -2 -22 -28 -12 -30 -39 -3
-43 18 -3 19 -2 2 8 -9 6 -15 15 -12 21 11 17 33 9 40 -13 7 -22 8 -22 12 5 6
41 -33 78 -51 48z"/>
<path d="M3430 245 c-15 -18 -10 -45 12 -59 12 -7 21 -7 28 0 8 8 4 10 -11 10
-12 -1 -24 5 -26 12 -3 8 6 12 26 12 33 0 39 8 19 28 -16 16 -33 15 -48 -3z
m45 -5 c4 -6 -5 -10 -20 -10 -15 0 -24 4 -20 10 3 6 12 10 20 10 8 0 17 -4 20
-10z"/>
<path d="M3511 220 l1 -45 8 35 c5 20 5 39 -1 45 -5 5 -9 -8 -8 -35z"/>
<path d="M3553 249 c10 -6 18 -23 18 -42 2 -31 2 -31 6 -4 5 29 -11 57 -31 57
-6 0 -3 -5 7 -11z"/>
<path d="M3660 245 c-15 -18 -10 -45 12 -59 12 -7 21 -7 28 0 8 8 4 10 -11 10
-12 -1 -24 5 -26 12 -3 8 6 12 26 12 33 0 39 8 19 28 -16 16 -33 15 -48 -3z
m45 -5 c4 -6 -5 -10 -20 -10 -15 0 -24 4 -20 10 3 6 12 10 20 10 8 0 17 -4 20
-10z"/>
<path d="M3747 253 c-13 -12 -7 -23 18 -35 29 -13 23 -32 -8 -22 -17 5 -19 3
-11 -6 14 -14 46 -10 51 7 3 7 -7 18 -21 24 -26 12 -26 35 1 25 8 -3 11 -1 8
4 -7 11 -28 13 -38 3z"/>
<path d="M1412 210 c2 -9 -4 -14 -14 -14 -10 1 -15 -2 -12 -7 7 -12 31 -11 40
2 3 6 1 16 -6 22 -9 9 -11 8 -8 -3z"/>
<path d="M2257 203 c5 -13 2 -15 -17 -10 -16 4 -20 3 -12 -5 14 -14 42 -3 42
17 0 8 -4 15 -10 15 -5 0 -7 -7 -3 -17z"/>
<path d="M2842 210 c2 -9 -4 -14 -14 -14 -10 1 -15 -2 -12 -7 7 -12 31 -11 40
2 3 6 1 16 -6 22 -9 9 -11 8 -8 -3z"/>
<path d="M3147 203 c5 -13 2 -15 -17 -10 -16 4 -20 3 -12 -5 14 -14 42 -3 42
17 0 8 -4 15 -10 15 -5 0 -7 -7 -3 -17z"/>
</g>
</svg>
